<svg width="40" height="40" viewBox="0 0 40 40" fill="none" xmlns="http://www.w3.org/2000/svg">
<path fill-rule="evenodd" clip-rule="evenodd" d="M20 40C31.0457 40 40 31.0457 40 20C40 8.9543 31.0457 0 20 0C8.9543 0 0 8.9543 0 20C0 31.0457 8.9543 40 20 40ZM20.7615 12C23.1154 12 25.0116 12.7192 26.5808 14.1577C28.0846 15.5308 28.8692 17.2962 29.0654 19.2577C29.0654 20.8923 28.6077 22.2654 27.6269 23.3769C26.6462 24.4885 25.5346 25.0769 24.2269 25.0769C23.3115 25.0769 22.6577 24.6846 22.2 24.0308C21.6115 24.75 20.8923 25.0769 20.0423 25.0769C19.1269 25.0769 18.2769 24.6846 17.6231 23.9C16.9039 23.05 16.5769 22.0038 16.5769 20.6962C16.5769 19.3885 16.9039 18.2769 17.6885 17.4269C18.4731 16.5769 19.3885 16.1192 20.4346 16.1192C21.0885 16.1192 21.6769 16.3808 22.2654 16.8385L22.3962 16.3154H24.6192L23.9654 21.6115C23.9 21.9385 23.9 22.2654 23.9 22.5269C23.9 22.9192 24.0308 23.05 24.3577 23.05C24.9462 23.05 25.4692 22.7231 25.9923 22.0038C26.5154 21.2846 26.7769 20.3692 26.7769 19.3231C26.7769 17.7538 26.2538 16.4462 25.0769 15.4C23.9 14.3538 22.4615 13.8308 20.8269 13.8308C18.9962 13.8308 17.4923 14.4846 16.25 15.7269C15.0731 16.9692 14.4192 18.5385 14.4192 20.4346C14.4192 22.1346 15.0077 23.6385 16.1846 24.9462C17.3615 26.2538 18.9962 26.9077 21.0885 26.9077C22.3962 26.9077 23.7692 26.5808 25.1423 25.9923C25.6654 25.7962 26.3192 26.0577 26.5154 26.5808C26.7115 27.1038 26.45 27.7577 25.9269 27.9538C24.2923 28.6731 22.6577 29 21.0231 29C18.2116 29 16.0539 28.2154 14.4192 26.5154C12.7846 24.8154 12 22.8538 12 20.5C12 18.0808 12.85 16.0538 14.55 14.4192C16.25 12.7846 18.3423 12 20.7615 12ZM19.9769 22.9192C20.5654 22.9192 21.0231 22.6577 21.4154 22.1346C21.8077 21.6115 22.0039 21.0231 21.9385 20.3692C21.9385 19.8462 21.8077 19.3885 21.4808 19.0615C21.1538 18.6692 20.7616 18.5385 20.3692 18.5385C19.9116 18.5385 19.5192 18.7346 19.1923 19.1923C18.8654 19.5846 18.7346 20.1731 18.7346 20.8923C18.7346 21.4808 18.8 21.9385 19.0616 22.3308C19.3231 22.7231 19.5846 22.9192 19.9769 22.9192Z" fill="#24252A"/>
</svg>
