<svg width="40" height="40" viewBox="0 0 40 40" fill="none" xmlns="http://www.w3.org/2000/svg">
<path fill-rule="evenodd" clip-rule="evenodd" d="M20 40C31.0457 40 40 31.0457 40 20C40 8.9543 31.0457 0 20 0C8.9543 0 0 8.9543 0 20C0 31.0457 8.9543 40 20 40ZM16.8042 12H15L15.0066 28H16.815C17.8119 28 18.6324 27.9712 18.6407 27.9208C18.6407 27.9139 18.6414 27.8588 18.6427 27.7625C18.6483 27.3333 18.6647 26.0861 18.6755 24.6499C18.6838 21.771 18.7053 21.4127 18.8827 21.0711C19.254 20.3288 19.9062 20.0208 20.8468 20.1208C21.3988 20.1784 21.7485 20.4208 22.0726 20.9495C22.3013 21.3495 22.3096 21.3911 22.3096 24.6699V27.9984H26L25.9652 23.9196C25.9345 20.2696 25.913 19.7992 25.7447 19.3489C25.313 18.1994 24.4842 17.4203 23.3099 17.0411C22.7745 16.8571 22.4637 16.8283 21.6996 16.8491C20.5385 16.8907 19.9253 17.1075 19.196 17.7282L18.6738 18.1786L18.6821 15.2125C18.6821 13.579 18.6689 12.192 18.6473 12.1208C18.6175 12.0288 18.1551 12 16.8042 12Z" fill="#24252A"/>
</svg>
