<svg width="40" height="40" viewBox="0 0 40 40" fill="none" xmlns="http://www.w3.org/2000/svg">
<path fill-rule="evenodd" clip-rule="evenodd" d="M20 40C31.0457 40 40 31.0457 40 20C40 8.9543 31.0457 0 20 0C8.9543 0 0 8.9543 0 20C0 31.0457 8.9543 40 20 40ZM28 26.2601V20.7444C28 17.7848 26.3856 16.3722 24.3004 16.3722C22.6188 16.3722 21.8117 17.3139 21.4081 17.9865V16.6413H18.1794C18.2466 17.5157 18.1794 26.2601 18.1794 26.2601H21.4081V20.8789C21.4081 20.5426 21.4753 20.2735 21.5426 20.0718C21.7444 19.5336 22.2825 18.9283 23.157 18.9283C24.3004 18.9283 24.7713 19.8027 24.7713 21.0807V26.2601H28ZM13 13.6816C13 12.7399 13.7399 12 14.8161 12C15.9596 12 16.6323 12.6726 16.565 13.6816C16.565 14.6233 15.8924 15.3632 14.7489 15.3632C13.6726 15.3632 13 14.6233 13 13.6816ZM16.4305 26.2601H13.2018V16.6413H16.4305V26.2601Z" fill="#24252A"/>
</svg>
