<svg width="40" height="40" viewBox="0 0 40 40" fill="none" xmlns="http://www.w3.org/2000/svg">
<path fill-rule="evenodd" clip-rule="evenodd" d="M20 40C31.0457 40 40 31.0457 40 20C40 8.9543 31.0457 0 20 0C8.9543 0 0 8.9543 0 20C0 31.0457 8.9543 40 20 40ZM13.9488 22.0886L9.3507 20.3741C8.8831 20.2182 8.8831 19.5168 9.3507 19.3609L28.2886 12.0352C28.6782 11.8793 29.0679 12.269 28.99 12.6587L25.5609 29.0247C25.483 29.4144 25.0154 29.5702 24.7036 29.3364L20.1055 25.9853C19.7938 25.7515 19.4041 25.7515 19.1703 25.9853L16.5985 28.0895C16.2868 28.3233 15.8192 28.2454 15.7413 27.8557L13.9488 22.0886ZM24.5477 15.6981L15.5075 21.2313C15.1178 21.3872 14.9619 21.8548 15.1957 22.2445L16.1309 25.6736C16.2089 25.9853 16.5985 25.9074 16.5985 25.6736L16.8323 23.8032C16.8323 23.4135 17.0661 23.1018 17.2999 22.868L24.7036 15.9319C24.8595 15.8539 24.7036 15.6201 24.5477 15.6981Z" fill="#24252A"/>
</svg>
